<svg width="98" height="35" viewBox="0 0 98 35" fill="none" xmlns="http://www.w3.org/2000/svg">
    <path d="M41.4389 15.2625C41.4389 15.2396 41.4389 15.2151 41.4346 15.1907C40.7833 9.29017 35.0864 8.65273 32.6763 8.65273C30.5688 8.65273 27.7512 9.25715 25.4314 10.8809V0.453669C25.4314 0.202428 25.2277 0 24.9767 0H21.5709C21.3198 0 21.1161 0.203864 21.1161 0.453669V34.5377C21.1161 34.789 21.3198 34.9914 21.5709 34.9914H24.9767C25.2277 34.9914 25.4314 34.7875 25.4314 34.5377V15.5999C27.196 13.8139 29.4799 12.7817 31.9905 12.6884C32.0608 12.6884 32.3276 12.6913 33.0019 12.6913C34.4796 12.6913 36.9959 13.2023 37.1264 16.625V34.5392C37.1264 34.7904 37.3287 34.9928 37.5798 34.9928H40.9855C41.2366 34.9928 41.4389 34.789 41.4389 34.5392V15.2625ZM16.2355 31.6994C16.2355 31.4482 16.0318 31.2457 15.7808 31.2457H9.23319C8.08693 31.2228 7.15443 30.2652 7.15443 29.1095V12.7271H12.9431C13.1942 12.7271 13.3964 12.5233 13.3964 12.2735V9.43373C13.3964 9.18249 13.1927 8.97863 12.9431 8.97863L7.15443 8.9815V3.86337C7.15443 3.61213 6.95072 3.40826 6.69966 3.40826H3.29388C3.04282 3.40826 2.83911 3.61213 2.83911 3.86337V8.97576H0.454773C0.203716 8.97576 0 9.17962 0 9.43086V12.2706C0 12.5218 0.203716 12.7243 0.454773 12.7243H2.83767C2.83767 14.7988 2.83767 21.466 2.83767 28.4017C2.88071 32.0354 5.86901 34.9914 9.49716 34.9914H15.7808C16.0318 34.9914 16.2355 34.789 16.2355 34.5377V31.698V31.6994ZM66.8703 15.9732C66.8703 12.1184 63.7371 8.98294 59.8852 8.98294H53.5341C49.6836 8.98294 46.5504 12.1184 46.5504 15.9732V28.0011C46.5504 31.8545 49.6836 34.99 53.5341 34.99L64.2593 34.9928C64.5104 34.9928 64.7141 34.789 64.7141 34.5392V31.6994C64.7141 31.4482 64.5104 31.2457 64.2593 31.2457L53.263 31.2501C51.9647 31.2501 50.9074 30.2336 50.8614 28.9358C50.8614 26.2138 50.8614 23.8607 50.8614 23.8607H66.4156C66.6666 23.8607 66.8703 23.6554 66.8703 23.4056V15.9746V15.9732ZM50.8643 20.1093V15.04C50.9117 13.7422 51.9618 12.7257 53.2601 12.7257H60.1578C61.4561 12.7257 62.5091 13.7422 62.5564 15.04C62.5564 18.2329 62.5593 20.1093 62.5593 20.1093H50.8658H50.8643ZM97.5452 3.40826H94.1394C93.8884 3.40826 93.6861 3.61213 93.6861 3.86337V29.1109C93.6861 30.2666 92.7364 31.2242 91.5686 31.2472H84.0684C82.9265 31.2256 81.9983 30.2709 81.994 29.1224C81.994 27.3063 81.9925 24.2024 81.9925 24.2024C81.9925 23.9511 81.7888 23.7473 81.5392 23.7473H78.1334C77.8824 23.7473 77.6801 23.9511 77.6801 24.2024V28.3242C77.6801 32.0052 80.667 35 84.3367 35H91.3032C94.9529 35 97.957 32.044 98 28.4046C98 11.837 98 3.86624 98 3.86624C98 3.615 97.7963 3.41113 97.5467 3.41113L97.5452 3.40826Z" fill="black"/>
</svg>
